<svg xmlns="http://www.w3.org/2000/svg" xmlns:xlink="http://www.w3.org/1999/xlink" version="1.1" x="0px" y="0px" viewBox="0 0 64 80" enable-background="new 0 0 64 64" xml:space="preserve"><g><path d="M40.445,2.178l-0.05-0.015h-0.009c-4.151-1.156-8.635-1.215-12.971-0.17c-0.148,0.024-0.297,0.061-0.43,0.104l-0.282,0.074   c-0.396,0.105-0.797,0.221-1.218,0.352c-2.941,0.808-5.59,2.039-7.873,3.66c-4.125,2.928-6.928,7.103-8.101,12.063   c-0.37,1.36-0.628,2.795-0.745,4.139c-0.064,0.543-0.053,1.089,0.034,1.67c0.05,0.334,0.073,0.637,0.071,0.925l0,0.024   c-0.008,0.913-0.245,1.818-0.687,2.617l-2.907,5.263c-0.497,0.901-0.773,1.92-0.797,2.949c-0.047,1.987,1.074,3.834,2.816,4.692   c-0.076,0.23-0.128,0.469-0.157,0.712c-0.109,0.927,0.138,1.913,0.715,2.862c-0.246,1.169,0.026,2.394,0.738,3.324l0,4   c-0.033,0.953,0.312,1.857,0.97,2.546c0.275,0.286,0.593,0.523,0.946,0.704c0.018,0.017,0.037,0.033,0.056,0.05l0.018,0.016   c1.385,1.178,3.538,1.707,6.404,1.572c1.986-0.092,3.748-0.483,4.23-0.598c0.222-0.045,0.439-0.072,0.646-0.082l1.609,5.98   c0.136,0.504,0.512,0.901,1.008,1.063c0.157,0.051,0.319,0.076,0.479,0.076c0.345,0,0.684-0.116,0.961-0.339   c0.476-0.382,0.681-1.01,0.523-1.599l-1.848-6.868c-0.184-0.682-0.745-1.211-1.43-1.346c-0.797-0.157-1.669-0.143-2.604,0.046   l-0.044,0.011c-2.363,0.57-6.416,0.959-7.903-0.308c-0.08-0.066-0.155-0.144-0.225-0.232c-0.279-0.346-0.405-0.798-0.375-1.346   c0.175-0.547,0.81-2.871-0.402-4.626c-0.114-0.169-0.246-0.33-0.406-0.495l-0.055-0.055c-0.075-0.07-0.436-0.454-0.138-1.116   l0.392-0.872l-0.599-0.75c-0.376-0.47-0.588-0.949-0.552-1.248c0.016-0.131,0.075-0.236,0.192-0.34   c0.336-0.298,0.529-0.726,0.529-1.175v-0.469c0-0.71-0.479-1.334-1.165-1.516c-0.673-0.181-1.26-0.42-1.699-0.691   c-0.446-0.275-0.738-0.764-0.78-1.307c-0.026-0.333,0.046-0.664,0.208-0.957l3.827-6.928c0.137-0.202,0.994-1.635,0.614-5.511   c-0.014-0.138,0-0.255,0.011-0.349c0.004-0.035,0.007-0.065,0.008-0.079l0.182-1.647l0.011-0.076   c0.873-4.428,4.016-12.303,15.244-15.338h0.08l0.333-0.109c0.019-0.007,0.038-0.014,0.055-0.018l0.229-0.049   c1.842-0.369,3.817-0.565,5.868-0.582h0.178c1.036,0,2.066,0.072,3.055,0.212c1.626,0.265,3.221,0.717,4.742,1.342   c4.068,1.67,7.59,4.515,10.184,8.226c2.585,3.701,4.041,7.969,4.209,12.34c0.031,0.827,0.016,1.657-0.046,2.467l-0.001,0.02   c-0.893,8.445-6.389,15.534-14.345,18.504c-0.181,0.068-0.345,0.164-0.487,0.286c-0.792,0.452-1.168,1.372-0.916,2.252l0.228,0.793   l1.854,7.907c0.127,0.541,0.536,0.973,1.068,1.13c0.528,0.155,1.084,0.025,1.487-0.349c0.403-0.374,0.576-0.918,0.462-1.456   l-1.708-8.04c1.534-0.641,3.011-1.437,4.391-2.368c6.915-4.665,11.089-12.431,11.165-20.777c0.002-0.186,0.002-0.375,0-0.561   C59.376,14.974,51.533,5.016,40.445,2.178z"/><path d="M42.387,25.248c0.58-0.149,0.985-0.681,0.985-1.293c0-0.41-0.186-0.789-0.511-1.04c-0.327-0.253-0.745-0.338-1.145-0.234   c-2.1,0.546-3.566,2.442-3.566,4.612s1.467,4.066,3.566,4.612c0.112,0.029,0.226,0.044,0.338,0.044c0.29,0,0.572-0.095,0.808-0.277   c0.324-0.251,0.51-0.63,0.51-1.041c0-0.611-0.405-1.143-0.985-1.293c-0.933-0.241-1.585-1.082-1.585-2.046   C40.802,26.33,41.454,25.489,42.387,25.248z"/><path d="M50.882,27.294c0-1.82-0.692-3.518-1.954-4.81c0.07-0.396,0.105-0.8,0.105-1.204c0-3.45-2.617-6.401-6.009-6.843   c-0.867-2.06-2.901-3.424-5.149-3.424c-0.26,0-0.522,0.018-0.779,0.054c-1.491,0.209-2.838,1.026-3.724,2.231   c-1.045-1.425-2.711-2.285-4.503-2.285c-2.343,0-4.413,1.444-5.228,3.619c-1.299,0.36-2.452,1.086-3.347,2.109   c-1.099,1.256-1.703,2.868-1.703,4.539c0,0.168,0.006,0.336,0.019,0.505c-1.725,1.302-2.747,3.341-2.747,5.509   c0,1.82,0.692,3.519,1.954,4.81c-0.07,0.395-0.105,0.799-0.105,1.204c0,3.449,2.617,6.401,6.008,6.843   c0.866,2.059,2.9,3.424,5.149,3.424c1.792,0,3.458-0.859,4.503-2.285c1.045,1.425,2.711,2.285,4.503,2.285   c0.374,0,0.749-0.038,1.116-0.113c1.886-0.386,3.44-1.718,4.112-3.506c1.029-0.286,1.987-0.814,2.782-1.534   c0.198-0.179,0.388-0.373,0.565-0.575c1.099-1.256,1.703-2.868,1.703-4.539c0-0.168-0.006-0.337-0.018-0.504   C49.86,31.502,50.882,29.462,50.882,27.294z M45.409,32.428c0.06,0.288,0.091,0.584,0.091,0.88c0,1.516-0.837,2.927-2.133,3.68   c-0.403-2.209-2.116-3.998-4.356-4.463c-0.393-0.082-0.798,0.017-1.109,0.27c-0.308,0.25-0.484,0.622-0.484,1.037   c0,0.622,0.443,1.164,1.053,1.29c1.358,0.279,2.347,1.47,2.362,2.868l-0.084,0.576c-0.291,1.467-1.626,2.478-3.133,2.345   c-1.499-0.131-2.672-1.443-2.672-2.987V16.661c0-1.441,0.999-2.679,2.375-2.943c0.184-0.035,0.367-0.052,0.548-0.052   c1.356,0,2.584,0.951,2.872,2.307c0.039,0.208,0.097,0.548,0.103,0.655c-0.004,1.368-1,2.562-2.366,2.839   c-0.613,0.124-1.058,0.667-1.058,1.308c0,0.398,0.177,0.772,0.486,1.024c0.304,0.249,0.699,0.347,1.08,0.269   c2.374-0.48,4.163-2.467,4.438-4.836c1.742,0.553,2.959,2.18,2.959,4.047c0,0.432-0.064,0.857-0.191,1.263l-0.269,0.865   l0.707,0.565c1.017,0.812,1.6,2.023,1.6,3.321c0,1.533-0.832,2.953-2.172,3.706l-0.849,0.477L45.409,32.428z M28.271,35.121   c0.613-0.124,1.057-0.666,1.057-1.309c0-0.398-0.177-0.772-0.486-1.024c-0.236-0.193-0.526-0.295-0.823-0.295   c-0.085,0-0.172,0.008-0.257,0.025c-2.374,0.48-4.163,2.467-4.438,4.837c-1.742-0.553-2.959-2.18-2.959-4.047   c0-0.432,0.064-0.857,0.191-1.263l0.269-0.865l-0.708-0.566c-1.017-0.813-1.601-2.023-1.601-3.321c0-1.533,0.832-2.953,2.172-3.705   l0.848-0.477l-0.2-0.952c-0.061-0.29-0.092-0.586-0.092-0.88c0-1.515,0.837-2.926,2.132-3.679c0.202,1.11,0.737,2.137,1.544,2.944   c0.776,0.776,1.748,1.301,2.812,1.52c0.395,0.081,0.8-0.017,1.11-0.271c0.307-0.25,0.483-0.621,0.483-1.037   c0-0.621-0.445-1.164-1.058-1.291c-0.557-0.115-1.066-0.391-1.473-0.798C26.183,18.054,25.86,17.3,25.91,16.6   c0.011-0.147,0.086-0.579,0.085-0.579c0.291-1.466,1.633-2.472,3.131-2.345c1.499,0.13,2.674,1.442,2.674,2.986v21.259   c0,1.484-1.077,2.761-2.505,2.969c-1.526,0.218-2.973-0.781-3.289-2.275c-0.036-0.194-0.096-0.545-0.105-0.657   C25.786,36.505,27.016,35.375,28.271,35.121z"/><path d="M25.03,22.681c-0.401-0.105-0.819-0.019-1.145,0.234c-0.324,0.251-0.511,0.63-0.511,1.04v0.043   c0,0.586,0.405,1.101,0.985,1.25c0.933,0.241,1.585,1.082,1.585,2.046c0,0.964-0.652,1.805-1.585,2.046   c-0.58,0.149-0.985,0.681-0.985,1.293c0,0.41,0.186,0.789,0.511,1.04c0.235,0.182,0.518,0.277,0.807,0.277   c0.112,0,0.226-0.014,0.338-0.044c2.1-0.546,3.567-2.442,3.567-4.612S27.13,23.227,25.03,22.681z"/></g></svg>